# xmcd
#
# Track frame offsets:
# 150
# 3233
# 31667
# 52926
# 77985
# 99937
# 124614
# 153912
# 172319
# 194036
# 211929
# 227878
#
# Disc length: 3360 seconds
#
#
# Revision: 0
# Processed by: cddbd v1.5.1PL2 Copyright (c) Steve Scherf et al.
# Submitted via: FreeRIP 2.944 
#
DISCID=930d1e0c
DTITLE=Barry White - Hight Stepping
DYEAR=1900
DGENRE=Dance
TTITLE0=Barry White - Welcome Aboard
TTITLE1=Barry White - My Laboratory
TTITLE2=Barry White - Antigua Blue
TTITLE3=Barry White - Never,Never Say Goodbye
TTITLE4=Barry White - Bayou
TTITLE5=Barry White - High Steppin' Hip Dressin' Falla
TTITLE6=Barry White - Take A Good Look
TTITLE7=Barry White - Easin'
TTITLE8=Barry White - I Did It For Love
TTITLE9=Barry White - I'm So Glad That I'm A Woman
TTITLE10=Barry White - He's Mine
TTITLE11=Barry White - Jamaican Girl
EXTD=
EXTT0=
EXTT1=
EXTT2=
EXTT3=
EXTT4=
EXTT5=
EXTT6=
EXTT7=
EXTT8=
EXTT9=
EXTT10=
EXTT11=
PLAYORDER=
